<svg xmlns="http://www.w3.org/2000/svg" width="257" height="23" viewBox="0 0 257 23">
  <g fill="none" fill-rule="evenodd">
    <path fill="#000" d="M0,21.87 L0,0.45 L9.66,0.45 C15,0.45 17.07,3.84 17.07,7.32 C17.07,10.8 15,14.19 9.66,14.19 L4.71,14.19 L4.71,21.87 L0,21.87 Z M4.71,4.11 L4.71,10.53 L8.37,10.53 C10.56,10.53 12.51,10.05 12.51,7.32 C12.51,4.59 10.56,4.11 8.37,4.11 L4.71,4.11 Z M20.51,21.87 L20.51,0.45 L25.22,0.45 L25.22,21.87 L20.51,21.87 Z M29.86,21.87 L29.86,0.45 L39.52,0.45 C44.86,0.45 46.93,3.84 46.93,7.32 C46.93,10.8 44.86,14.19 39.52,14.19 L34.57,14.19 L34.57,21.87 L29.86,21.87 Z M34.57,4.11 L34.57,10.53 L38.23,10.53 C40.42,10.53 42.37,10.05 42.37,7.32 C42.37,4.59 40.42,4.11 38.23,4.11 L34.57,4.11 Z M50.37,21.87 L50.37,0.45 L66.39,0.45 L66.39,4.41 L55.08,4.41 L55.08,9 L65.46,9 L65.46,12.66 L55.08,12.66 L55.08,17.91 L66.63,17.91 L66.63,21.87 L50.37,21.87 Z M70.31,21.87 L70.31,0.45 L79.55,0.45 C85.1,0.45 89.27,3.93 89.27,11.04 C89.27,17.25 86.09,21.87 79.55,21.87 L70.31,21.87 Z M75.02,4.41 L75.02,17.91 L79.22,17.91 C81.95,17.91 84.56,16.23 84.56,11.49 C84.56,7.17 83.06,4.41 78.38,4.41 L75.02,4.41 Z M93.04,21.87 L93.04,0.45 L104.59,0.45 C108.43,0.45 110.86,3.12 110.86,6.36 C110.86,8.88 109.84,10.77 107.47,11.73 L107.47,11.79 C109.78,12.39 110.44,14.64 110.59,16.8 C110.68,18.15 110.65,20.67 111.49,21.87 L106.78,21.87 C106.21,20.52 106.27,18.45 106.03,16.74 C105.7,14.49 104.83,13.5 102.46,13.5 L97.75,13.5 L97.75,21.87 L93.04,21.87 Z M97.75,4.11 L97.75,10.14 L102.91,10.14 C105.01,10.14 106.15,9.24 106.15,7.08 C106.15,5.01 105.01,4.11 102.91,4.11 L97.75,4.11 Z M115.2,21.87 L115.2,0.45 L131.22,0.45 L131.22,4.41 L119.91,4.41 L119.91,9 L130.29,9 L130.29,12.66 L119.91,12.66 L119.91,17.91 L131.46,17.91 L131.46,21.87 L115.2,21.87 Z M132.86,21.87 L140.99,0.45 L145.82,0.45 L153.83,21.87 L148.94,21.87 L147.32,17.1 L139.31,17.1 L137.63,21.87 L132.86,21.87 Z M143.33,5.73 L140.54,13.59 L146.09,13.59 L143.39,5.73 L143.33,5.73 Z M156.19,21.87 L156.19,0.45 L162.82,0.45 L167.83,15.18 L167.89,15.18 L172.63,0.45 L179.26,0.45 L179.26,21.87 L174.85,21.87 L174.85,6.69 L174.79,6.69 L169.54,21.87 L165.91,21.87 L160.66,6.84 L160.6,6.84 L160.6,21.87 L156.19,21.87 Z"/>
    <path fill="#000" d="M183.99,21.87 L183.99,0.45 L186.03,0.45 L186.03,20.13 L198.03,20.13 L198.03,21.87 L183.99,21.87 Z M198.23,21.87 L206.87,0.45 L209.15,0.45 L217.55,21.87 L215.36,21.87 L212.75,15.21 L203,15.21 L200.42,21.87 L198.23,21.87 Z M207.92,2.49 L203.63,13.47 L212.06,13.47 L207.92,2.49 Z M222.04,11.58 L222.04,20.13 L229.06,20.13 C232.09,20.16 234.7,19.14 234.7,15.72 C234.7,12.99 232.63,11.58 229.06,11.58 L222.04,11.58 Z M220,21.87 L220,0.45 L229.06,0.45 C232.66,0.45 235.93,1.71 235.93,5.7 C235.93,7.95 234.43,10.02 232.21,10.5 L232.21,10.56 C234.97,10.92 236.74,12.99 236.74,15.78 C236.74,17.82 236.02,21.87 229.06,21.87 L220,21.87 Z M222.04,2.19 L222.04,9.84 L229.06,9.84 C232.33,9.84 233.89,8.22 233.89,6.21 C233.89,3.54 232.24,2.19 229.06,2.19 L222.04,2.19 Z M239.43,14.82 L241.47,14.82 C241.38,19.23 244.56,20.58 248.46,20.58 C250.71,20.58 254.13,19.35 254.13,16.23 C254.13,13.8 251.7,12.84 249.72,12.36 L244.95,11.19 C242.43,10.56 240.12,9.36 240.12,6.03 C240.12,3.93 241.47,0 247.5,0 C251.73,0 255.45,2.28 255.42,6.66 L253.38,6.66 C253.26,3.39 250.56,1.74 247.53,1.74 C244.74,1.74 242.16,2.82 242.16,6 C242.16,8.01 243.66,8.85 245.4,9.27 L250.62,10.56 C253.65,11.37 256.17,12.69 256.17,16.2 C256.17,17.67 255.57,22.32 247.98,22.32 C242.91,22.32 239.19,20.04 239.43,14.82 Z" opacity=".504"/>
  </g>
</svg>
